<svg width="32px" height="32px" viewBox="0 0 32 32" version="1.1" xmlns="http://www.w3.org/2000/svg" xmlns:xlink="http://www.w3.org/1999/xlink">
    <defs>
        <path d="M11.0003353,16.3405262 C11.0003353,17.2395262 10.0843353,17.9995262 9.00033535,17.9995262 C7.91633535,17.9995262 7.00033535,17.2395262 7.00033535,16.3405262 L7.00033535,15.9995262 L11.0003353,15.9995262 L11.0003353,16.3405262 Z M17.5213353,13.2065262 L15.7203353,11.4035262 L15.7203353,6.93552621 C15.7203353,3.45452621 13.2183353,0.498526207 9.89933535,0.058526207 C7.97833535,-0.196473793 6.03833535,0.389526207 4.58333535,1.66552621 C3.11933535,2.94752621 2.28033535,4.79252621 2.28033535,6.72652621 L2.27933535,11.4035262 L0.479335349,13.2075262 C0.0103353493,13.6765262 -0.128664651,14.3765262 0.125335349,14.9895262 C0.380335349,15.6025262 0.973335349,15.9995262 1.63733535,15.9995262 L5.00033535,15.9995262 L5.00033535,16.3405262 C5.00033535,18.3585262 6.79433535,19.9995262 9.00033535,19.9995262 C11.2063353,19.9995262 13.0003353,18.3585262 13.0003353,16.3405262 L13.0003353,15.9995262 L16.3623353,15.9995262 C17.0263353,15.9995262 17.6193353,15.6035262 17.8733353,14.9895262 C18.1283353,14.3765262 17.9893353,13.6765262 17.5213353,13.2065262 L17.5213353,13.2065262 Z" id="path-hj2k_ag0t_-1"></path>
    </defs>
    <g id="Symbols" stroke="none" stroke-width="1" fill="none" fill-rule="evenodd">
        <g id="bell-fill" transform="translate(6.999665, 6.000774)">
            <mask id="mask-hj2k_ag0t_-2" fill="white">
                <use xlink:href="#path-hj2k_ag0t_-1"></use>
            </mask>
            <use id="🎨-Icon-Сolor" fill="#FFFFFF" fill-rule="nonzero" xlink:href="#path-hj2k_ag0t_-1"></use>
        </g>
    </g>
</svg>