<svg width="16px" height="20px" viewBox="0 0 16 20" version="1.1" xmlns="http://www.w3.org/2000/svg" xmlns:xlink="http://www.w3.org/1999/xlink">
    <defs>
        <path d="M10,1.978 L13.742,6 L10.714,6 C10.32,6 10,5.619 10,5.15 L10,1.978 Z M15.741,5.328 L11.296,0.328 C11.107,0.119 10.838,0 10.556,0 L2.556,0 C1.146,0 0,1.122 0,2.5 L0,17.5 C0,18.878 1.146,20 2.556,20 L13.444,20 C14.854,20 16,18.878 16,17.5 L16,6 C16,5.751 15.908,5.512 15.741,5.328 L15.741,5.328 Z" id="path-dj8oez7brg-1"></path>
    </defs>
    <g id="Desktop" stroke="none" stroke-width="1" fill="none" fill-rule="evenodd">
        <g transform="translate(-155.000000, -617.000000)" id="Side-Menu">
            <g transform="translate(80.000000, 79.000000)">
                <g id="Library" transform="translate(16.000000, 384.000000)">
                    <g id="List" transform="translate(51.000000, 68.000000)">
                        <g id="Album" transform="translate(0.000000, 80.000000)">
                            <g id="file-fill" transform="translate(8.000000, 6.000000)">
                                <mask id="mask-dj8oez7brg-2" fill="white">
                                    <use xlink:href="#path-dj8oez7brg-1"></use>
                                </mask>
                                <use id="🎨-Icon-Сolor" fill-opacity="0.87" fill="#FFFFFF" fill-rule="nonzero" xlink:href="#path-dj8oez7brg-1"></use>
                            </g>
                        </g>
                    </g>
                </g>
            </g>
        </g>
    </g>
</svg>